<svg width="24.000000" height="24.000000" viewBox="0 0 24 24" fill="none" xmlns="http://www.w3.org/2000/svg" xmlns:xlink="http://www.w3.org/1999/xlink">
	<desc>
			Created with Pixso.
	</desc>
	<defs>
		<clipPath id="clip2_257">
			<rect id="basic / mail" rx="0.000000" width="23.000000" height="23.000000" transform="translate(0.500000 0.500000)" fill="white" fill-opacity="0"/>
		</clipPath>
	</defs>
	<g clip-path="url(#clip2_257)">
		<path id="coolicon" d="M20 20L4 20C2.89 20 2 19.1 2 18L2 5.91C2.04 4.84 2.92 3.99 4 4L20 4C21.1 4 22 4.89 22 6L22 18C22 19.1 21.1 20 20 20ZM4 7.86L4 18L20 18L20 7.86L12 13.2L4 7.86ZM4.8 6L12 10.8L19.2 6L4.8 6Z" fill="#FFFFFF" fill-opacity="1.000000" fill-rule="nonzero"/>
	</g>
</svg>
