<svg width="11.666626" height="12.833252" viewBox="0 0 11.6666 12.8333" fill="none" xmlns="http://www.w3.org/2000/svg" xmlns:xlink="http://www.w3.org/1999/xlink">
	<desc>
			Created with Pixso.
	</desc>
	<defs/>
	<path id="Vector" d="M10.5 1.16L9.91 1.16L9.91 0L8.75 0L8.75 1.16L2.91 1.16L2.91 0L1.75 0L1.75 1.16L1.16 1.16C0.52 1.16 0 1.69 0 2.33L0 11.66C0 12.3 0.52 12.83 1.16 12.83L10.5 12.83C11.14 12.83 11.66 12.3 11.66 11.66L11.66 2.33C11.66 1.69 11.14 1.16 10.5 1.16ZM10.5 11.66L1.16 11.66L1.16 4.08L10.5 4.08L10.5 11.66Z" fill="#999999" fill-opacity="1.000000" fill-rule="nonzero"/>
</svg>
