<svg width="166.000000" height="26.786743" viewBox="0 0 166 26.7867" fill="none" xmlns="http://www.w3.org/2000/svg" xmlns:xlink="http://www.w3.org/1999/xlink">
	<desc>
			Created with Pixso.
	</desc>
	<defs/>
	<path id="High pass" d="M57.13 4.53Q57.13 4.07 57.31 3.68Q57.48 3.28 57.84 2.96C58.31 2.53 58.91 2.31 59.62 2.31C60.34 2.31 60.93 2.53 61.4 2.96Q61.76 3.28 61.93 3.68Q62.11 4.07 62.11 4.53Q62.11 4.92 61.98 5.26Q61.81 5.72 61.4 6.1Q61.19 6.3 60.94 6.44Q60.37 6.76 59.62 6.76C58.91 6.76 58.31 6.54 57.84 6.1Q57.43 5.72 57.26 5.26Q57.13 4.92 57.13 4.53ZM37.51 21.81L37.51 3.49L42.36 3.49L42.36 10.29L49.42 10.29L49.42 3.49L54.27 3.49L54.27 21.81L49.42 21.81L49.42 14.74L42.36 14.74L42.36 21.81L37.51 21.81ZM81.47 21.81L81.47 3.49L85.92 3.49L85.92 10.03L86.18 10.03C86.43 9.61 86.74 9.24 87.13 8.93Q87.74 8.41 88.45 8.13Q89.28 7.8 90.24 7.8C91.85 7.8 93.09 8.29 93.98 9.27C94.89 10.23 95.35 11.62 95.35 13.43L95.35 21.81L90.9 21.81L90.9 14.09Q90.9 13 90.36 12.36Q90.32 12.31 90.27 12.25C89.85 11.82 89.27 11.6 88.54 11.6C87.79 11.6 87.16 11.88 86.66 12.44C86.17 12.98 85.92 13.7 85.92 14.61L85.92 21.81L81.47 21.81ZM65.83 19.74Q65.47 19.34 65.18 18.89Q64.08 17.17 64.08 14.74Q64.08 12.31 65.18 10.59Q65.47 10.14 65.83 9.74C67 8.45 68.42 7.8 70.1 7.8C71.3 7.8 72.34 8.15 73.21 8.85C73.61 9.17 73.93 9.51 74.16 9.9L74.42 9.9L74.42 8.2L78.87 8.2L78.87 26.78L65.91 26.78L65.91 23.25L74.42 23.25L74.42 19.71L74.16 19.71C73.91 20.1 73.6 20.43 73.21 20.71C72.36 21.35 71.32 21.68 70.1 21.68C68.42 21.68 67 21.03 65.83 19.74ZM105.17 26.78L105.17 8.2L109.62 8.2L109.62 10.03L109.88 10.03C110.13 9.63 110.46 9.26 110.88 8.93C111.84 8.18 112.86 7.8 113.94 7.8C115.61 7.8 117.04 8.47 118.2 9.79C119.37 11.1 119.96 12.84 119.96 15C119.96 17.17 119.37 18.91 118.2 20.24C117.04 21.55 115.61 22.2 113.94 22.2C112.84 22.2 111.82 21.83 110.88 21.1C110.46 20.77 110.13 20.39 109.88 19.98L109.62 19.98L109.62 26.78L105.17 26.78ZM123.27 20.24C122.1 18.91 121.52 17.17 121.52 15C121.52 12.84 122.1 11.1 123.27 9.79C124.44 8.47 125.86 7.8 127.54 7.8C128.62 7.8 129.64 8.18 130.6 8.93C131 9.26 131.33 9.63 131.59 10.03L131.86 10.03L131.86 8.2L136.31 8.2L136.31 21.81L131.86 21.81L131.86 19.98L131.59 19.98C131.35 20.39 131.02 20.77 130.6 21.1C129.66 21.83 128.64 22.2 127.54 22.2C125.86 22.2 124.44 21.55 123.27 20.24ZM138.13 17.36L142.58 17.36C142.64 17.62 142.79 17.86 143.02 18.09C143.49 18.56 144.17 18.8 145.06 18.8C146.28 18.8 146.89 18.49 146.89 17.88C146.89 17.6 146.72 17.38 146.37 17.23C146.02 17.05 145.5 16.88 144.8 16.7C144.23 16.56 143.85 16.48 143.67 16.44C143.5 16.41 143.13 16.31 142.58 16.15C142.02 15.98 141.62 15.83 141.37 15.71C141.14 15.57 140.82 15.38 140.4 15.13C140 14.87 139.71 14.61 139.51 14.35C139.34 14.07 139.17 13.73 139.02 13.33C138.86 12.91 138.78 12.46 138.78 11.99Q138.78 11.43 138.95 10.92Q139.28 9.86 140.33 9.03C141.35 8.21 142.8 7.8 144.67 7.8C147.01 7.8 148.86 8.57 150.22 10.11C150.76 10.77 151.14 11.53 151.35 12.39L147.03 12.39C146.92 12.11 146.8 11.89 146.66 11.73C146.26 11.29 145.68 11.08 144.93 11.08C143.89 11.08 143.36 11.38 143.36 11.99C143.36 12.29 143.54 12.52 143.89 12.67C144.23 12.83 144.77 12.98 145.48 13.12C147.28 13.54 148.49 13.9 149.12 14.22Q150.5 14.89 151.07 15.99Q151.48 16.76 151.48 17.75C151.48 19.01 150.92 20.06 149.8 20.92C148.7 21.77 147.12 22.2 145.06 22.2Q142.19 22.2 140.35 20.82Q139.76 20.38 139.28 19.79C138.68 19.08 138.3 18.27 138.13 17.36ZM152.64 17.36L157.1 17.36C157.17 17.62 157.31 17.86 157.54 18.09C158.01 18.56 158.69 18.8 159.58 18.8C160.8 18.8 161.41 18.49 161.41 17.88C161.41 17.6 161.24 17.38 160.89 17.23C160.54 17.05 160.02 16.88 159.32 16.7C158.75 16.56 158.37 16.48 158.2 16.44C158.02 16.41 157.65 16.31 157.1 16.15C156.54 15.98 156.14 15.83 155.89 15.71C155.66 15.57 155.34 15.38 154.92 15.13C154.52 14.87 154.22 14.61 154.03 14.35C153.86 14.07 153.69 13.73 153.54 13.33C153.38 12.91 153.3 12.46 153.3 11.99C153.3 10.84 153.82 9.85 154.84 9.03C155.87 8.21 157.32 7.8 159.19 7.8C161.53 7.8 163.38 8.57 164.74 10.11C165.28 10.77 165.66 11.53 165.86 12.39L161.55 12.39C161.44 12.11 161.32 11.89 161.18 11.73C160.78 11.29 160.2 11.08 159.45 11.08C158.4 11.08 157.88 11.38 157.88 11.99C157.88 12.29 158.06 12.52 158.4 12.67C158.75 12.83 159.29 12.98 160 13.12C161.8 13.54 163.01 13.9 163.64 14.22C165.21 14.99 166 16.16 166 17.75C166 19.01 165.44 20.06 164.32 20.92C163.22 21.77 161.64 22.2 159.58 22.2C157.05 22.2 155.12 21.4 153.8 19.79C153.2 19.08 152.82 18.27 152.64 17.36ZM57.4 21.81L57.4 8.2L61.85 8.2L61.85 21.81L57.4 21.81ZM69.44 12.44Q69.37 12.51 69.31 12.59Q68.66 13.41 68.66 14.74C68.66 15.72 68.92 16.49 69.44 17.04C69.97 17.6 70.66 17.88 71.54 17.88C72.41 17.88 73.11 17.6 73.63 17.04C74.16 16.49 74.42 15.72 74.42 14.74C74.42 13.76 74.16 13 73.63 12.44C73.11 11.88 72.41 11.6 71.54 11.6C70.66 11.6 69.97 11.88 69.44 12.44ZM110.4 12.49C109.88 13.08 109.62 13.92 109.62 15C109.62 16.08 109.88 16.92 110.4 17.52C110.93 18.11 111.63 18.41 112.5 18.41C113.37 18.41 114.07 18.11 114.59 17.52C115.12 16.92 115.38 16.08 115.38 15C115.38 13.92 115.12 13.08 114.59 12.49Q114.31 12.17 113.96 11.97Q113.34 11.6 112.5 11.6C111.63 11.6 110.93 11.9 110.4 12.49ZM126.88 12.49C126.36 13.08 126.1 13.92 126.1 15C126.1 16.08 126.36 16.92 126.88 17.52C127.41 18.11 128.1 18.41 128.98 18.41C129.85 18.41 130.55 18.11 131.07 17.52C131.59 16.92 131.86 16.08 131.86 15C131.86 13.92 131.59 13.08 131.07 12.49C130.55 11.9 129.85 11.6 128.98 11.6C128.1 11.6 127.41 11.9 126.88 12.49Z" fill="#FFFFFF" fill-opacity="1.000000" fill-rule="evenodd"/>
	<path id="Rectangle 5 (Stroke)" d="M5.23 5.23L5.23 20.94L20.94 20.94L5.23 5.23ZM0 0L0 26.17L26.17 26.17L26.17 0L0 0Z" fill="#FF6E30" fill-opacity="1.000000" fill-rule="evenodd"/>
</svg>
