<svg width="16.500000" height="16.500000" viewBox="0 0 16.5 16.5" fill="none" xmlns="http://www.w3.org/2000/svg" xmlns:xlink="http://www.w3.org/1999/xlink">
	<desc>
			Created with Pixso.
	</desc>
	<defs/>
	<path id="Vector" d="M15.59 11.34C14.46 11.34 13.37 11.16 12.35 10.83C12.03 10.72 11.67 10.8 11.43 11.05L9.99 12.86C7.39 11.62 4.96 9.28 3.67 6.6L5.46 5.07C5.71 4.82 5.78 4.46 5.68 4.14C5.34 3.12 5.17 2.03 5.17 0.9C5.17 0.41 4.75 0 4.26 0L1.09 0C0.59 0 0 0.21 0 0.9C0 9.42 7.08 16.5 15.59 16.5C16.24 16.5 16.5 15.92 16.5 15.41L16.5 12.25C16.5 11.76 16.08 11.34 15.59 11.34Z" fill="#FF6E30" fill-opacity="1.000000" fill-rule="nonzero"/>
</svg>
